<svg height="496pt" viewBox="0 0 496 496" width="496pt" xmlns="http://www.w3.org/2000/svg"><path d="M360 344h16v80c0 17.672 14.328 32 32 32h8c17.672 0 32 14.328 32 32h-88" fill="#bab8b9"/><path d="M360 488h-88c0-17.672 14.328-32 32-32h8c17.672 0 32-14.328 32-32v-80h16" fill="#d9d7d8"/><path d="M200 376c0 53.02-42.98 96-96 96S8 429.02 8 376s42.98-96 96-96 96 42.98 96 96zm0 0" fill="#eea273"/><path d="M56 392c0 53.016 42.984 96 96 96s96-42.984 96-96zm0 0" fill="#df9363"/><path d="M216 392c0 35.344-28.656 64-64 64s-64-28.656-64-64" fill="#eea273"/><path d="M40 232h32c17.672 0 32 14.328 32 32H72c-17.672 0-32-14.328-32-32zm0 0" fill="#5da351"/><path d="M72 232H44.441c5.543 9.527 15.743 16 27.559 16h27.559c-5.543-9.527-15.743-16-27.559-16zm0 0" fill="#74c865"/><path d="M328 104c0 53.02-42.98 96-96 96s-96-42.98-96-96 42.98-96 96-96 96 42.98 96 96zm0 0" fill="#df9363"/><path d="M296 104c0 35.348-28.652 64-64 64s-64-28.652-64-64 28.652-64 64-64 64 28.652 64 64zm0 0" fill="#eea273"/><path d="M488 104v112c0 70.695-57.305 128-128 128s-128-57.305-128-128V104zm0 0" fill="#efedee"/><path d="M232 208c0 70.695 57.305 128 128 128 17.184 0 33.55-3.441 48.527-9.586C446.457 304.2 472 263.13 472 216V104H232zm0 0" fill="#fff"/><path d="M360 344c65.266 0 119.008-48.879 126.895-112h-88.27c-14.488 0-28.387-5.754-38.625-16s-24.137-16-38.625-16H232v16c0 70.695 57.305 128 128 128zm0 0" fill="#df9363"/><path d="M348.29 343.406c59.612-5.68 107.222-52.293 114.605-111.406h-88.262a54.604 54.604 0 01-38.625-16 54.604 54.604 0 00-38.625-16H232v16c0 66.734 51.09 121.488 116.29 127.406zm0 0" fill="#eea273"/><path d="M263.996 216l72-72 55.996 55.996-72 72zm0 0" fill="#999"/><path d="M368.855 223.145A54.246 54.246 0 01360 216a54.618 54.618 0 00-38.625-16H280l-16 16 56 56zM456 232V48c0-4.414 3.586-8 8-8h24V8h-32c-17.672 0-32 14.328-32 32v192" fill="#bab8b9"/><path d="M424 104h32v128h-32zm0 0" fill="#d9d7d8"/><path d="M232 208c-57.344 0-104-46.656-104-104S174.656 0 232 0s104 46.656 104 104h-16c0-48.52-39.48-88-88-88s-88 39.48-88 88 39.48 88 88 88zm0 0"/><path d="M232 176c-39.695 0-72-32.297-72-72s32.305-72 72-72 72 32.297 72 72h-16c0-30.871-25.121-56-56-56s-56 25.129-56 56 25.121 56 56 56zm0 0"/><path d="M192.84 164.422l64-127.996 14.312 7.152-64 128zm0 0"/><path d="M192.84 43.582l14.308-7.156 32 63.996-14.312 7.156zm0 0"/><path d="M168 96h128v16H168zm-16 400c-57.344 0-104-46.656-104-104 0-4.426 3.586-8 8-8h192c4.414 0 8 3.574 8 8 0 57.344-46.656 104-104 104zm-87.64-96c4.054 44.793 41.808 80 87.64 80s83.586-35.207 87.64-80zm0 0"/><path d="M144.836 395.57l14.309-7.156 32 63.996-14.313 7.156zm0 0"/><path d="M112.832 452.418l32-63.996 14.309 7.156-32 63.996zm0 0"/><path d="M152 464c-39.695 0-72-32.297-72-72h16c0 30.871 25.121 56 56 56s56-25.129 56-56h16c0 39.703-32.305 72-72 72zm0 0"/><path d="M98.266 479.84C43.168 476.84 0 431.223 0 376c0-57.344 46.656-104 104-104s104 46.656 104 104c0 5.824-.488 11.648-1.441 17.328l-15.782-2.656A87.877 87.877 0 00192 376c0-48.52-39.48-88-88-88s-88 39.48-88 88c0 46.734 36.512 85.328 83.137 87.871zm0 0"/><path d="M106.742 336h-5.496c-10.68 0-20.726-4.168-28.277-11.719l-6.633-6.625 11.312-11.312 6.633 6.625C88.754 317.44 94.937 320 101.258 320h5.496c6.316 0 12.492-2.559 16.965-7.031l6.633-6.625 11.312 11.312-6.633 6.625C127.473 331.832 117.426 336 106.742 336zm0 0"/><path d="M112 328H96v-40c0-35.29 28.71-64 64-64v16c-26.473 0-48 21.527-48 48zm0 0"/><path d="M104 272H72c-22.055 0-40-17.945-40-40 0-4.426 3.586-8 8-8h32c22.055 0 40 17.945 40 40 0 4.426-3.586 8-8 8zm-54.633-32c3.305 9.313 12.2 16 22.633 16h22.633c-3.305-9.313-12.2-16-22.633-16zM360 352c-74.992 0-136-61.008-136-136V104c0-4.426 3.586-8 8-8h256c4.414 0 8 3.574 8 8v112c0 74.992-61.008 136-136 136zM240 112v104c0 66.168 53.832 120 120 120s120-53.832 120-120V112zm0 0"/><path d="M488 240h-89.367c-16.73 0-32.457-6.512-44.29-18.344-8.808-8.808-20.519-13.656-32.976-13.656H232v-16h89.367c16.73 0 32.457 6.512 44.29 18.344 8.808 8.808 20.519 13.656 32.976 13.656H488zm0 0"/><path d="M360 352c-74.992 0-136-61.008-136-136v-16c0-4.426 3.586-8 8-8h89.367c16.73 0 32.457 6.512 44.29 18.344 8.808 8.808 20.519 13.656 32.976 13.656h88.262c2.296 0 4.48.984 6 2.703a8.033 8.033 0 011.945 6.29C486.352 300.831 428.383 352 360 352zM240 208v8c0 66.168 53.832 120 120 120 57.273 0 106.266-40.672 117.488-96h-78.855c-16.73 0-32.457-6.512-44.29-18.344-8.808-8.808-20.519-13.656-32.976-13.656zm0 0"/><path d="M320 280a7.984 7.984 0 01-5.656-2.344l-56-56a7.99 7.99 0 010-11.312l72-72a7.99 7.99 0 0111.312 0l56 56a7.99 7.99 0 010 11.312l-72 72A7.984 7.984 0 01320 280zm-44.688-64L320 260.688 380.688 200 336 155.312zM464 232h-16V48c0-8.824 7.176-16 16-16h16V16h-24c-13.23 0-24 10.77-24 24v192h-16V40c0-22.055 17.945-40 40-40h32c4.414 0 8 3.574 8 8v32c0 4.426-3.586 8-8 8h-24zm-16 264H272c-4.414 0-8-3.574-8-8 0-22.055 17.945-40 40-40h8c13.23 0 24-10.77 24-24v-80h16v80c0 22.055-17.945 40-40 40h-8c-10.434 0-19.328 6.688-22.633 16h157.258c-3.305-9.313-12.2-16-22.633-16h-8c-22.055 0-40-17.945-40-40v-80h16v80c0 13.23 10.77 24 24 24h8c22.055 0 40 17.945 40 40 .008 4.426-3.578 8-7.992 8zm0 0"/></svg>